<svg width="48" height="48" viewBox="0 0 48 48" fill="none" xmlns="http://www.w3.org/2000/svg">
<path d="M13.7599 44.98L13.7299 44.73C13.7299 44.73 13.7099 44.55 13.6599 44.48C13.6099 44.42 13.5799 44.29 13.5799 44.29L13.4499 44.08C13.4499 44.08 13.4499 44.33 13.4099 44.56C13.3699 44.79 13.3099 44.82 13.2799 44.91C13.2499 44.99 13.2299 45.05 13.2299 45.05L13.1899 45.13C13.1899 45.13 13.1599 45.16 13.1399 45.2C13.1099 45.24 13.0999 45.29 13.0999 45.29C13.0999 45.29 13.0699 45.26 13.0299 45.32C12.9899 45.38 12.9799 45.38 12.9399 45.4C12.8999 45.42 12.8599 45.45 12.8299 45.45C12.7999 45.45 12.7299 45.45 12.6399 45.51C12.5499 45.57 12.4599 45.59 12.4599 45.59C12.4599 45.59 12.2599 45.65 12.1999 45.66C12.1399 45.66 12.0899 45.69 12.0899 45.69L12.0699 45.75L12.0299 45.73L12.0099 45.7C12.0099 45.7 11.8399 45.7 11.7599 45.7C11.6799 45.72 11.5999 45.72 11.5999 45.72C11.5999 45.72 11.3799 45.72 11.3399 45.72C11.2999 45.72 11.2099 45.72 11.1999 45.69C11.1799 45.67 11.1799 45.6 11.1799 45.6C11.1799 45.6 11.2199 45.51 11.2099 45.46C11.1999 45.42 11.1799 45.37 11.1799 45.37V45.34L11.1999 45.31V45.28L11.1899 45.2V45.11L11.1799 45.05H11.1199L11.0599 45.08L11.0299 45.05L10.9599 45.1C10.9599 45.1 10.9299 45.1 10.9199 45.07C10.8999 45.03 10.8299 44.96 10.8799 44.93C10.9133 44.91 10.9399 44.91 10.9599 44.93C10.9599 44.93 11.0299 45.01 11.0599 44.96C11.0899 44.92 11.1399 44.91 11.1399 44.91L11.1899 44.84L11.2199 44.82C11.2199 44.82 11.2299 44.5 11.2299 44.41C11.2299 44.32 11.1699 44.26 11.1699 44.19C11.1699 44.12 11.1899 43.92 11.1899 43.76C11.1899 43.6 11.1799 43.23 11.1899 43.16C11.1999 43.09 11.2399 43.08 11.2499 43.03C11.2599 42.98 11.2499 42.83 11.2499 42.79C11.2499 42.75 11.2099 42.73 11.2399 42.67C11.2699 42.61 11.2699 42.53 11.2699 42.53C11.2699 42.53 11.2599 42.18 11.2799 42C11.3099 41.82 11.3799 41.76 11.4499 41.69C11.5199 41.61 11.5699 41.58 11.6099 41.55C11.6499 41.52 11.7499 41.48 11.7499 41.48L11.7699 41.42L11.7999 41.44C11.7999 41.44 11.8599 41.39 11.8899 41.37C11.9199 41.35 12.0199 41.3 12.0199 41.26C12.0199 41.22 12.0599 41.22 12.0599 41.22C12.0599 41.22 11.7699 41.2 11.6599 41.22C11.5499 41.23 11.5299 41.28 11.4599 41.25C11.3899 41.23 11.1499 41.25 11.1499 41.25H11.0799L10.9899 41.22L10.9599 41.24L10.9299 41.31L10.8799 41.36L10.8199 41.45V41.54C10.8199 41.54 10.7799 41.43 10.7799 41.39C10.7799 41.35 10.7699 41.29 10.7699 41.29L10.7299 41.26C10.7299 41.26 10.6299 41.27 10.5399 41.26C10.4499 41.24 10.3699 41.28 10.3699 41.28L10.2799 41.35H10.1699L10.1299 41.27C10.1299 41.27 10.0699 41.27 10.0199 41.27H9.81992L9.72992 41.25H9.56992C9.56992 41.25 9.56992 41.27 9.46992 41.25C9.36992 41.23 9.27992 41.25 9.27992 41.25C9.27992 41.25 9.36992 41.31 9.39992 41.35L9.43992 41.39C9.43992 41.39 9.45992 41.42 9.50992 41.45C9.55992 41.49 9.62992 41.58 9.62992 41.58L9.68992 41.64C9.68992 41.64 9.76992 41.67 9.79992 41.74C9.82992 41.82 9.84992 41.88 9.87992 42.01C9.90992 42.14 9.91992 42.27 9.91992 42.27L9.95992 42.35L9.93992 42.43C9.93992 42.43 9.93992 42.47 9.93992 42.6C9.93992 42.73 9.98992 42.87 9.98992 42.87V43.25C9.98992 43.37 9.98992 43.55 9.98992 43.55V43.74C9.98992 43.74 10.0299 44.05 10.0099 44.14C9.98992 44.23 10.0099 44.33 10.0099 44.33C10.0099 44.33 10.0399 44.43 10.0099 44.5C10.0099 44.5 10.0099 44.89 9.98992 44.99C9.98992 45.09 9.98992 45.38 9.95992 45.48C9.92992 45.58 9.84992 45.75 9.81992 45.8C9.78992 45.85 9.61992 46.07 9.61992 46.07C9.61992 46.07 9.50992 46.12 9.40992 46.19C9.29992 46.25 9.21992 46.31 9.21992 46.31L9.08992 46.39C9.08992 46.39 9.08992 46.42 9.15992 46.42C9.22992 46.42 9.33992 46.43 9.40992 46.43C9.47992 46.43 9.62992 46.39 9.62992 46.39L9.70992 46.34C9.70992 46.34 9.87992 46.29 9.91992 46.3C9.95992 46.31 10.0299 46.31 10.0299 46.31L10.3799 46.35C10.3799 46.35 10.9499 46.39 10.9999 46.36C11.0499 46.33 11.1999 46.36 11.1999 46.36C11.1999 46.36 11.2599 46.31 11.2899 46.32C11.3199 46.32 11.3699 46.34 11.3999 46.33C11.4299 46.33 11.5599 46.41 11.5599 46.37C11.5599 46.33 11.5399 46.24 11.6499 46.25L11.7299 46.21L11.7699 46.25L11.7199 46.29L11.7699 46.34C11.7699 46.34 11.8999 46.31 11.9599 46.31C12.0199 46.31 12.2699 46.35 12.3299 46.34C12.3899 46.32 12.5899 46.37 12.5899 46.37C12.5899 46.37 12.6499 46.31 12.6799 46.32C12.7099 46.32 13.0299 46.32 13.0299 46.32C13.0299 46.32 13.1799 46.31 13.2499 46.31C13.3199 46.31 13.4399 46.41 13.4899 46.48C13.4899 46.48 13.5899 46.25 13.6499 46.09C13.7199 45.93 13.7499 45.66 13.7699 45.56C13.7899 45.46 13.8199 45.33 13.8199 45.33C13.8199 45.33 13.8499 45.32 13.8399 45.19C13.8399 45.06 13.8399 44.93 13.8399 44.93L13.7599 44.98ZM21.3399 46.04C21.3399 46.04 21.2799 45.96 21.1399 45.85C20.9999 45.74 20.9699 45.66 20.9699 45.66L20.9099 45.53L20.8899 45.42L20.8299 45.36L20.7999 45.27L20.7499 45.23L20.6999 45.09C20.6999 45.09 20.5999 44.72 20.5199 44.57C20.4399 44.41 20.3499 44.19 20.3499 44.19C20.3499 44.19 20.2599 43.98 20.2399 43.91C20.2199 43.84 20.1799 43.77 20.1799 43.77L20.1199 43.7L20.0599 43.72H19.9699L19.9899 43.6L20.0599 43.51V43.38L19.9999 43.28C19.9999 43.28 19.8399 43.08 19.8199 42.98C19.7899 42.88 19.6999 42.69 19.6999 42.69L19.6399 42.5C19.6399 42.5 19.5299 42.16 19.5199 42.12C19.5199 42.09 19.4099 41.81 19.3699 41.76L19.3099 41.57C19.3099 41.57 19.3099 41.41 19.2499 41.39C19.1899 41.37 19.1499 41.35 19.1499 41.35L19.1099 41.25C19.1099 41.25 18.9799 41.01 18.9599 40.94C18.9599 40.94 18.7399 41.18 18.6999 41.23C18.6599 41.27 18.5399 41.37 18.5399 41.37C18.5399 41.37 18.3599 41.45 18.2899 41.51C18.2299 41.58 18.1499 41.63 18.1499 41.63C18.1499 41.63 17.8699 41.79 17.8199 41.83C17.7599 41.87 17.7299 41.91 17.7299 41.91L17.6599 42H17.5899C17.5899 42 17.4099 42.13 17.3599 42.19C17.3099 42.25 17.1899 42.33 17.1699 42.43C17.1699 42.43 17.3899 42.33 17.4499 42.32C17.5099 42.31 17.6199 42.29 17.6199 42.29L17.6999 42.25L17.8799 42.23C17.8799 42.23 17.9399 42.19 18.0099 42.23C18.0799 42.27 18.1099 42.25 18.1799 42.26C18.2399 42.27 18.3099 42.32 18.3099 42.32L18.3499 42.36C18.3499 42.36 18.3899 42.37 18.4199 42.42C18.4599 42.46 18.4799 42.54 18.4799 42.54C18.4799 42.54 18.4399 42.62 18.4099 42.65C18.3699 42.68 18.3299 42.75 18.3299 42.75L18.2699 42.81C18.2699 42.81 18.2699 42.78 18.1999 42.82C18.1199 42.86 18.0599 42.92 18.0599 42.92L18.0199 42.94C18.0199 42.94 17.9599 42.98 17.9299 43.04C17.9033 43.08 17.8833 43.12 17.8699 43.16C17.8399 43.23 17.8299 43.28 17.8299 43.28C17.8299 43.28 17.8299 43.27 17.7699 43.34C17.7199 43.41 17.7299 43.46 17.6799 43.5L17.6199 43.53C17.6199 43.53 17.6199 43.6 17.5899 43.7C17.5599 43.8 17.4999 43.9 17.4999 43.9C17.4999 43.9 17.4299 44 17.4399 44.04C17.4399 44.08 17.4399 44.13 17.4399 44.13H17.3699C17.3699 44.13 17.2899 44.35 17.2799 44.39V44.42L17.1199 44.41C17.1199 44.41 16.9499 44.41 16.8199 44.42C16.6899 44.43 16.7999 44.43 16.7999 44.43L16.6599 44.46C16.6599 44.46 16.5899 44.46 16.4999 44.49C16.4199 44.52 16.3099 44.56 16.3099 44.56C16.3099 44.56 16.2899 44.63 16.4099 44.67C16.5299 44.71 16.6899 44.75 16.6899 44.75C16.6899 44.75 16.7599 44.79 16.8599 44.81C16.9499 44.82 16.8899 44.83 16.8899 44.83C16.8899 44.83 16.9499 44.83 16.9799 44.86L17.0199 44.89L16.9399 44.95L17.1299 44.97C17.1299 44.97 16.9599 45.4 16.9099 45.52C16.8599 45.64 16.7599 45.76 16.7599 45.76C16.7599 45.76 16.7599 45.73 16.6399 45.86C16.5099 45.99 16.3299 46.14 16.2499 46.18C16.1699 46.22 16.0999 46.27 16.0999 46.27C16.0999 46.27 16.0099 46.3 15.9699 46.38C15.9699 46.38 16.1499 46.42 16.2399 46.44C16.3199 46.45 16.4399 46.43 16.4399 46.43C16.4399 46.43 16.5499 46.41 16.6499 46.41C16.7499 46.41 16.8899 46.43 16.8899 46.43L17.0599 46.45H17.1899C17.1899 46.45 17.2499 46.48 17.4099 46.48C17.5699 46.48 17.7799 46.49 17.7799 46.49H18.1299L18.2499 46.5C18.2499 46.5 18.1399 46.4 18.0699 46.36C17.9999 46.32 17.8999 46.24 17.8999 46.24C17.8999 46.24 17.7799 46.18 17.7699 46.12C17.7699 46.05 17.8099 45.86 17.8099 45.86V45.74C17.8099 45.74 17.7699 45.65 17.7899 45.56C17.8099 45.47 17.8299 45.32 17.8299 45.32L17.8899 44.98L17.9899 45.06H18.1499C18.2299 45.06 18.3499 45.04 18.4299 45.06C18.5099 45.08 18.7799 45.09 18.9099 45.09C19.0399 45.09 19.0799 45.09 19.1299 45.1C19.1799 45.11 19.2099 45.13 19.2699 45.13C19.3299 45.13 19.3499 45.13 19.4899 45.12C19.6299 45.11 19.6599 45.08 19.6599 45.08H19.7399C19.7399 45.08 19.7599 45.15 19.7599 45.25C19.7599 45.35 19.7799 45.44 19.7799 45.59V45.85C19.7799 45.85 19.8299 45.91 19.7299 46.02C19.6299 46.13 19.5599 46.25 19.5599 46.25C19.5599 46.25 19.4999 46.32 19.4199 46.39L19.3599 46.43C19.3599 46.43 19.4299 46.43 19.5199 46.46C19.5999 46.49 19.7199 46.44 19.7199 46.44C19.7199 46.44 19.8799 46.44 19.9699 46.42C20.0499 46.4 20.3499 46.48 20.3899 46.48C20.4299 46.48 20.6299 46.49 20.6299 46.49C20.6299 46.49 20.7899 46.43 20.9199 46.45C21.0599 46.46 21.1199 46.46 21.1199 46.46C21.1199 46.46 21.2599 46.49 21.2999 46.45C21.3499 46.41 21.3999 46.46 21.3999 46.46L21.4799 46.48H21.6399C21.6399 46.48 21.8299 46.49 21.8899 46.49H22.0299C22.0299 46.49 21.7599 46.26 21.6499 46.19C21.5399 46.12 21.3499 46.03 21.3499 46.03L21.3399 46.04ZM19.0599 44.19C18.9799 44.19 18.8599 44.21 18.8599 44.21H18.6999L18.6399 44.27L18.5799 44.29C18.5799 44.29 18.5999 44.32 18.5499 44.33C18.4999 44.34 18.4599 44.36 18.4599 44.36C18.4599 44.36 18.3799 44.36 18.3799 44.32C18.3799 44.28 18.3199 44.22 18.3199 44.22H18.2499L18.2299 44.14H18.1399C18.1399 44.14 18.2499 43.82 18.3399 43.7C18.4299 43.58 18.5099 43.31 18.5099 43.31C18.5099 43.31 18.5699 43.15 18.6199 43.1C18.6699 43.04 18.7199 42.91 18.7199 42.91C18.7199 42.91 18.8999 43.19 18.9399 43.28C18.9799 43.37 18.9999 43.42 18.9999 43.42C18.9999 43.42 19.0199 43.52 19.0599 43.6C19.0999 43.68 19.1399 43.8 19.1399 43.8L19.2399 43.99L19.2999 44.16C19.2999 44.16 19.1299 44.19 19.0499 44.19H19.0599ZM39.3399 41.66C39.5399 41.55 39.7299 41.43 39.9299 41.31C39.9299 41.29 39.9299 41.27 39.9299 41.24C39.6999 41.24 39.4699 41.24 39.2499 41.24C39.2399 41.24 39.2299 41.26 39.2199 41.26C39.1099 41.28 38.9999 41.31 38.8899 41.31C38.7599 41.31 38.6299 41.27 38.4899 41.28C38.2699 41.28 38.0499 41.33 37.8399 41.34C37.6899 41.35 37.5399 41.34 37.3899 41.34C37.4699 41.45 37.5599 41.53 37.6599 41.6C37.7999 41.69 37.8499 41.84 37.8599 42.03C37.8599 42.28 37.9699 42.28 38.0999 42.46C37.9799 42.67 37.8799 42.28 37.8799 42.56C37.8799 42.69 37.8599 43.21 37.8599 43.34C37.8499 43.74 37.8299 44.14 37.8299 44.54C37.8299 44.88 37.8699 45.21 37.8799 45.55C37.8799 46.03 37.8099 46.16 37.4599 46.35C37.3599 46.41 37.2599 46.49 37.1599 46.55C37.1599 46.55 37.1699 46.57 37.1799 46.57C37.4799 46.57 37.8099 46.66 38.0699 46.54C38.3799 46.4 38.6599 46.63 38.9399 46.54C38.9499 46.54 39.3799 46.56 39.3899 46.56C39.5999 46.58 39.3099 46.47 39.5199 46.48C39.5599 46.48 39.7099 46.58 39.7499 46.58C39.7499 46.57 39.7699 46.55 39.7699 46.53C39.6899 46.44 39.6199 46.36 39.5399 46.27C39.4599 46.18 39.3699 46.1 39.2999 46C39.1999 45.86 39.1199 45.7 39.1699 45.5C39.2199 45.31 39.2299 45.12 39.2099 44.91C39.1899 44.58 39.1899 44.26 39.1799 43.93C39.1599 43.54 39.1299 43.16 39.1299 42.77C39.1299 42.47 39.1999 42.17 39.2199 41.87C39.2199 41.75 39.2599 41.68 39.3499 41.64L39.3399 41.66ZM27.0299 43.82C26.9099 43.75 26.8099 43.62 26.6799 43.56C26.5599 43.51 26.4399 43.47 26.3199 43.44C26.1999 43.41 26.0999 43.26 25.9899 43.25C25.9899 43.06 25.8599 43.14 25.7799 43.15C25.7799 43.13 25.7799 43.1 25.7799 43.07C25.6399 43.07 25.5099 42.87 25.3799 42.79C25.2399 42.7 25.0599 42.57 24.9099 42.56C24.8899 42.35 25.1399 41.97 25.2899 41.9C25.3799 41.86 25.5199 41.83 25.6099 41.8C25.7499 41.75 25.8799 41.81 26.0299 41.8C26.0299 41.76 26.1299 41.71 26.1199 41.78C26.2599 41.78 26.4299 41.83 26.5699 41.87C26.6399 41.89 26.6799 41.94 26.7299 41.99C26.7999 42.06 26.8599 42.06 26.9499 42.11C27.0899 42.19 27.1899 42.43 27.2799 42.57C27.3499 42.68 27.4499 42.78 27.4699 42.94C27.4499 42.67 27.4299 42.38 27.4099 42.1C27.3999 41.97 27.3699 41.85 27.3499 41.72C27.3199 41.53 27.3499 41.32 27.3299 41.14C27.0799 41.41 26.6999 41.29 26.3899 41.33C26.0299 41.38 25.6999 41.26 25.3499 41.3C25.2699 41.3 25.2199 41.37 25.1699 41.38C25.1099 41.4 25.0599 41.36 24.9999 41.36C24.8499 41.38 24.6699 41.5 24.5499 41.61C24.3099 41.81 24.1199 41.96 23.9699 42.29C23.9099 42.41 23.8299 42.54 23.7899 42.68C23.7499 42.79 23.7699 42.99 23.7199 43.1C23.6999 43.15 23.6399 43.18 23.5899 43.22C23.6799 43.31 23.8299 43.33 23.9299 43.36C24.0199 43.39 24.1199 43.47 24.1999 43.49C24.2599 43.5 24.3099 43.48 24.3699 43.49C24.3499 43.71 24.6099 43.82 24.7399 43.93C24.8299 44 24.9099 44.03 24.9899 44.09C25.0699 44.14 25.1399 44.26 25.2299 44.28C25.2299 44.26 25.2299 44.25 25.2299 44.24C25.3299 44.26 25.3999 44.34 25.4999 44.35C25.5999 44.35 25.7099 44.34 25.7099 44.54C25.8699 44.54 26.0199 44.73 26.1699 44.81C26.3099 44.88 26.4899 45.09 26.6299 45.1C26.4999 45.36 26.3599 45.61 26.1299 45.75C25.9499 45.86 25.8499 45.85 25.6499 45.88C25.6199 45.88 25.5899 45.93 25.5599 45.93C25.5299 45.93 25.4999 45.88 25.4699 45.9C25.4099 45.93 25.3899 45.94 25.4299 46.04C25.4099 46.03 25.3899 46.04 25.3699 46.04C25.3899 46.1 25.3699 46.26 25.3199 46.28C25.3199 46.19 25.3199 46.02 25.3199 45.93C25.1699 45.89 24.9699 45.9 24.8399 45.77C24.6899 45.63 24.5299 45.46 24.3599 45.3C24.2699 45.21 24.1999 45.19 24.1399 45.07C24.1199 45.03 24.1199 44.97 24.0899 44.93C24.0699 44.9 24.0199 44.9 24.0099 44.88C23.9499 44.76 23.8999 44.51 23.8799 44.37C23.8799 44.54 23.8299 44.71 23.8099 44.87C23.7899 45.03 23.7999 45.2 23.7799 45.36C23.7499 45.67 23.6799 46.01 23.5799 46.28C23.6799 46.18 23.7299 46.04 23.8699 46.01C24.0299 45.97 24.1499 46.1 24.2999 46.14C24.5399 46.2 24.7599 46.38 24.9999 46.43C25.1399 46.46 25.2499 46.43 25.3899 46.5V46.51C25.5899 46.51 25.7899 46.46 25.9999 46.46C26.2699 46.46 26.5299 46.3 26.7699 46.16C26.8799 46.09 26.9299 45.98 27.0399 45.9C27.1499 45.82 27.1899 45.77 27.2699 45.66C27.3899 45.5 27.5499 45.39 27.5299 45.11C27.6199 45.11 27.6899 44.87 27.7199 44.77C27.7499 44.67 27.7399 44.61 27.7999 44.54C27.8499 44.48 27.9799 44.43 28.0399 44.43C27.8999 44.37 27.7799 44.23 27.6399 44.16C27.4299 44.05 27.2099 43.98 27.0099 43.86L27.0299 43.82ZM23.5499 43.23C23.5499 43.23 23.5699 43.21 23.5799 43.2C23.5799 43.2 23.5699 43.19 23.5599 43.18V43.23H23.5499ZM33.6199 43.82C33.4999 43.75 33.3999 43.62 33.2699 43.56C33.1499 43.51 33.0299 43.47 32.9099 43.44C32.7999 43.41 32.8899 43.41 32.7799 43.39C32.7799 43.2 32.6499 43.28 32.5699 43.29C32.5699 43.27 32.5699 43.24 32.5699 43.21C32.4299 43.21 32.0999 42.87 31.9699 42.79C31.8299 42.7 31.6499 42.57 31.4999 42.56C31.4799 42.35 31.7299 41.97 31.8799 41.9C31.9699 41.86 32.0999 41.83 32.1999 41.8C32.3399 41.75 32.4699 41.81 32.6099 41.8C32.6099 41.76 32.4899 41.65 32.4899 41.62C32.5399 41.67 32.7099 41.71 32.6999 41.78C32.8399 41.78 33.0099 41.83 33.1499 41.87C33.2199 41.89 33.2599 41.94 33.3099 41.99C33.3799 42.06 33.4399 42.06 33.5299 42.11C33.6699 42.19 33.7699 42.43 33.8599 42.57C33.9299 42.68 34.1299 42.8 34.1599 42.97C34.1399 42.7 34.0199 42.38 33.9899 42.11C33.9799 41.98 33.9499 41.86 33.9299 41.73C33.8999 41.54 33.9299 41.33 33.9099 41.15C33.6599 41.42 33.2799 41.3 32.9799 41.34C32.6199 41.39 32.2999 41.27 31.9399 41.31C31.8599 41.31 31.8699 41.45 31.8099 41.47C31.7499 41.49 31.6399 41.37 31.5799 41.38C31.4299 41.4 31.2499 41.52 31.1299 41.63C30.8899 41.83 30.6999 41.98 30.5499 42.31C30.4899 42.43 30.4099 42.56 30.3699 42.7C30.3299 42.81 30.3499 43.01 30.2999 43.12C30.2799 43.17 30.2199 43.17 30.1799 43.18C30.2699 43.28 30.4099 43.35 30.5199 43.38C30.6099 43.41 30.9899 43.7 31.0799 43.72C31.1399 43.73 31.1899 43.71 31.2499 43.72C31.2299 43.94 31.1999 43.83 31.3299 43.94C31.4199 44.01 31.4899 44.04 31.5799 44.1C31.6599 44.15 31.7299 44.27 31.8199 44.29C31.8199 44.27 31.6899 43.99 31.6899 43.97C31.7899 43.99 31.9899 44.35 32.0899 44.35C32.1899 44.35 32.2999 44.34 32.2999 44.54C32.4599 44.54 32.6099 44.73 32.7599 44.81C32.8999 44.88 33.0799 45.09 33.2199 45.1C33.0899 45.36 32.9499 45.61 32.7199 45.75C32.5399 45.86 32.4399 45.85 32.2399 45.88C32.2099 45.88 32.1799 45.93 32.1499 45.93C32.1199 45.93 32.0899 45.9 32.0599 45.9C32.0099 45.88 31.9099 46.01 31.9099 45.92C31.7599 45.88 31.5699 45.89 31.4399 45.76C31.2899 45.62 31.1299 45.45 30.9599 45.29C30.8699 45.2 30.7899 45.3 30.7299 45.19C30.7099 45.15 30.7099 45.09 30.6799 45.05C30.6599 45.02 30.6299 44.9 30.6099 44.88C30.5499 44.76 30.4999 44.51 30.4899 44.37C30.4899 44.54 30.4399 44.71 30.4199 44.87C30.3999 45.03 30.4099 45.2 30.3899 45.36C30.3599 45.67 30.2899 46.01 30.1899 46.28C30.2899 46.18 30.3399 46.04 30.4799 46.01C30.6399 45.97 30.7599 46.1 30.9099 46.14C31.1499 46.2 31.3699 46.38 31.5999 46.43C31.7399 46.46 31.8699 46.45 32.0099 46.52V46.53C32.2099 46.53 32.3899 46.46 32.5999 46.46C32.8699 46.46 33.1199 46.3 33.3599 46.16C33.4699 46.09 33.5199 45.98 33.6299 45.9C33.7399 45.82 33.7799 45.77 33.8599 45.66C33.9799 45.5 34.1399 45.39 34.1199 45.11C34.2099 45.11 34.2799 44.87 34.3099 44.77C34.3399 44.67 34.3299 44.77 34.3799 44.7C34.4299 44.64 34.5599 44.43 34.6199 44.42C34.4799 44.36 34.3599 44.22 34.2199 44.15C34.0099 44.04 33.7999 43.97 33.5899 43.85L33.6199 43.82ZM30.1599 43.17C30.1599 43.17 30.1799 43.16 30.1999 43.15C30.1999 43.15 30.1799 43.13 30.1799 43.12V43.17H30.1599ZM1.16992 43.51C1.16992 43.51 1.19992 43.48 1.20992 43.46L1.16992 43.51ZM6.21992 45.37C6.11992 45.48 5.98992 45.57 5.87992 45.65C5.80992 45.7 5.73992 45.75 5.66992 45.76C5.61992 45.77 5.57992 45.73 5.51992 45.76C5.51992 45.8 5.49992 45.83 5.49992 45.87C5.43992 45.87 5.36992 45.88 5.30992 45.89L4.99992 45.86C4.99992 45.86 4.97992 45.85 4.96992 45.84C4.92992 45.82 4.88992 45.82 4.83992 45.81V45.85H4.74992C4.51992 45.85 4.22992 45.72 4.02992 45.6C3.90992 45.53 3.83992 45.38 3.71992 45.32C3.64992 45.28 3.55992 45.32 3.48992 45.26C3.45992 45.24 3.45992 45.18 3.43992 45.16C3.21992 44.89 2.94992 44.71 2.83992 44.31C2.76992 44.05 2.75992 43.68 2.60992 43.47C2.68992 43.38 2.69992 43.25 2.75992 43.14C2.80992 43.04 2.87992 42.95 2.94992 42.86C3.14992 42.6 3.36992 42.42 3.61992 42.27C3.83992 42.14 4.06992 42.02 4.30992 41.96C4.35992 41.95 4.39992 41.94 4.43992 41.92C4.48992 41.9 4.48992 41.86 4.55992 41.85C4.68992 41.83 4.82992 41.89 4.96992 41.89C4.96992 41.93 4.98992 41.96 4.98992 42C5.04992 42.04 5.07992 42 5.13992 42C5.20992 42.01 5.27992 42.07 5.34992 42.11C5.46992 42.19 5.58992 42.28 5.68992 42.39C5.79992 42.51 5.85992 42.66 5.95992 42.78C6.04992 42.88 6.15992 42.92 6.22992 43.02C6.16992 42.66 6.06992 42.29 6.02992 41.92C6.00992 41.72 5.90992 41.55 5.83992 41.38C5.79992 41.27 5.72992 40.85 5.64992 40.79C5.49992 41.06 5.48992 41.28 5.22992 41.28C4.97992 41.28 4.73992 41.2 4.48992 41.21C4.24992 41.22 4.04992 41.16 3.80992 41.19C3.70992 41.2 3.61992 41.26 3.51992 41.29C3.44992 41.31 3.31992 41.29 3.27992 41.31C3.05992 41.34 2.86992 41.58 2.66992 41.68C2.68992 41.79 2.70992 41.91 2.83992 41.94C2.78992 41.94 2.47992 41.82 2.43992 41.83C2.40992 41.83 2.36992 41.89 2.33992 41.91C2.13992 42.05 2.08992 42.25 1.95992 42.46C1.90992 42.54 1.85992 42.56 1.80992 42.63C1.73992 42.72 1.70992 42.85 1.65992 42.98C1.57992 43.21 1.35992 43.29 1.19992 43.46C1.26992 43.55 1.42992 43.8 1.46992 43.9C1.50992 44.02 1.58992 44.12 1.61992 44.24C1.65992 44.4 1.64992 44.48 1.72992 44.59C1.80992 44.7 1.85992 44.83 1.91992 44.97C1.98992 45.15 2.07992 45.33 2.16992 45.5C2.26992 45.68 2.33992 45.73 2.48992 45.84C2.71992 46 2.89992 46.16 3.13992 46.27C3.22992 46.52 3.63992 46.62 3.82992 46.6C4.06992 46.57 4.31992 46.59 4.56992 46.57C4.71992 46.56 4.86992 46.51 5.01992 46.51V46.55C5.12992 46.55 5.22992 46.55 5.32992 46.53C5.42992 46.54 5.52992 46.55 5.62992 46.54C5.71992 46.54 5.79992 46.51 5.88992 46.48C6.05992 46.5 6.11992 46.57 6.22992 46.78C6.30992 46.72 6.33992 46.47 6.37992 46.36C6.38992 46.33 6.39992 46.3 6.41992 46.27C6.43992 46.27 6.44992 46.27 6.46992 46.27C6.45992 46.26 6.44992 46.25 6.42992 46.24C6.48992 46.11 6.54992 45.97 6.55992 45.82C6.59992 45.45 6.69992 45.08 6.74992 44.72C6.67992 44.83 6.56992 44.87 6.47992 44.97C6.36992 45.09 6.31992 45.24 6.20992 45.36L6.21992 45.37ZM46.8999 45.22C46.7899 45.34 46.7399 45.25 46.6299 45.38C46.5299 45.49 46.4099 45.58 46.2899 45.66C46.2199 45.71 46.1499 45.76 46.0799 45.77C46.0299 45.78 45.9899 45.74 45.9299 45.77C45.9299 45.81 45.9099 45.84 45.9099 45.88C45.8499 45.88 45.7799 45.89 45.7199 45.9L45.4099 45.87C45.4099 45.87 45.3899 45.86 45.3799 45.85C45.3399 45.84 45.2999 45.83 45.2499 45.82V45.86H45.1599C44.9299 45.86 44.6399 45.73 44.4499 45.61C44.3299 45.54 44.2599 45.39 44.1499 45.33C44.0799 45.29 43.9999 45.33 43.9299 45.27C43.8999 45.25 43.8999 45.19 43.8799 45.17C43.6599 44.9 43.3999 44.73 43.2899 44.32C43.2199 44.06 43.2199 43.69 43.0699 43.48C43.1499 43.39 43.1599 43.26 43.2199 43.15C43.2699 43.05 43.3399 42.96 43.3999 42.87C43.5999 42.61 43.8099 42.43 44.0599 42.29C44.2799 42.16 44.4999 42.04 44.7399 41.98C44.7899 41.97 44.8299 41.96 44.8699 41.94C44.9199 41.92 44.9199 41.88 44.9899 41.87C45.1199 41.85 45.4699 41.92 45.6099 41.92C45.6099 41.96 45.4199 41.98 45.4099 42.02C45.4699 42.06 45.4999 42.02 45.5599 42.02C45.6299 42.03 45.6999 42.09 45.7699 42.13C45.8899 42.21 46.0099 42.3 46.1099 42.41C46.2199 42.53 46.2799 42.68 46.3799 42.8C46.4699 42.9 46.5799 42.94 46.6499 43.04C46.5999 42.68 46.4999 42.31 46.4499 41.95C46.4299 41.75 46.3299 41.58 46.2599 41.41C46.2199 41.3 46.1799 41.06 46.1099 41C45.9699 41.26 45.9099 41.31 45.6499 41.31C45.3999 41.31 45.1599 41.23 44.9199 41.24C44.6799 41.25 44.4899 41.19 44.2399 41.22C44.1399 41.23 44.0499 41.29 43.9499 41.32C43.8799 41.34 43.7599 41.32 43.7099 41.34C43.4899 41.37 43.3099 41.61 43.0999 41.71C43.1099 41.82 42.9199 41.85 42.8799 41.86C42.8499 41.86 42.8099 41.92 42.7799 41.94C42.5899 42.08 42.5699 42.62 42.4399 42.83C42.3899 42.91 42.4699 42.28 42.4199 42.34C42.3499 42.43 42.1599 42.87 42.1099 43C42.0199 43.25 41.9299 43.42 41.7899 43.63L41.7399 43.76C41.8099 43.84 41.8899 43.82 41.9299 43.93C41.9699 44.05 42.0499 44.15 42.0799 44.27C42.1199 44.43 42.1099 44.51 42.1899 44.62C42.2699 44.73 42.3199 44.86 42.3699 45C42.4399 45.18 42.5299 45.36 42.6199 45.53C42.7199 45.71 42.7899 45.76 42.9299 45.86C43.1599 46.02 43.3299 46.18 43.5799 46.29C43.6699 46.54 44.0699 46.64 44.2599 46.62C44.4999 46.59 44.7499 46.61 44.9899 46.59C45.1399 46.58 45.2799 46.53 45.4299 46.53V46.57C45.5399 46.57 45.6399 46.57 45.7399 46.55C45.8399 46.56 45.9399 46.57 46.0399 46.56C46.1299 46.56 46.2099 46.53 46.2899 46.5C46.4499 46.52 46.5099 46.59 46.6299 46.8C46.7099 46.74 46.7399 46.49 46.7799 46.38C46.7899 46.35 46.7999 46.32 46.8099 46.29C46.8299 46.29 46.8399 46.29 46.8599 46.29C46.8499 46.28 46.8399 46.27 46.8199 46.26C46.8799 46.13 46.9399 46 46.9499 45.84C46.9899 45.47 47.0899 45.1 47.1399 44.75C47.0699 44.86 46.9599 45.13 46.8699 45.23L46.8999 45.22Z" fill="#FEAF51"/>
<path d="M24.2371 36.8922C33.5719 36.8922 41.1393 29.3249 41.1393 19.9901C41.1393 10.6553 33.5719 3.08789 24.2371 3.08789C14.9023 3.08789 7.33496 10.6553 7.33496 19.9901C7.33496 29.3249 14.9023 36.8922 24.2371 36.8922Z" fill="#010100"/>
<path d="M39.857 11.0145V6.31297H35.952C32.8047 3.63193 28.7249 2 24.2565 2C19.7881 2 15.6889 3.63193 12.561 6.31297H8.63658V10.9951C7.10179 13.6567 6.22754 16.7068 6.22754 19.9901C6.22754 23.254 7.10179 26.3236 8.63658 28.9658V33.6479H12.5416C15.6889 36.3289 19.7687 37.9608 24.2371 37.9608C28.7055 37.9608 32.7853 36.3289 35.9326 33.6479H39.8376V28.9658C41.353 26.3236 42.2467 23.254 42.2272 19.9901C42.2467 16.7263 41.3724 13.6567 39.857 11.0145ZM24.2565 35.2604C15.8054 35.2604 8.94743 28.4218 8.94743 19.9707C8.94743 11.539 15.8054 4.68103 24.2565 4.68103C32.7076 4.68103 39.5656 11.5196 39.5656 19.9707C39.5462 28.4218 32.7076 35.2604 24.2565 35.2604Z" fill="#A43B00"/>
<path d="M27.7343 24.8276C27.7148 24.8082 27.676 24.7888 27.6954 24.7111L24.4898 12.1024C23.3436 16.26 22.5276 20.5341 21.2843 24.6722L21.2454 24.5945C21.2454 24.5945 19.1083 14.4726 18.8946 13.2875C18.6809 12.1024 19.3026 10.8202 19.3026 10.8202H13.0469C13.824 11.2088 14.232 12.083 14.5234 12.8213L18.4478 29.704C18.5449 30.4423 17.9815 31.1417 17.4181 31.7634H23.7127C23.4796 31.1611 23.2659 30.5977 23.2659 29.8983L24.6258 23.7397C25.0144 25.5853 25.4029 27.4115 25.7915 29.2572C26.0246 30.0926 25.8692 31.0251 25.5195 31.7634H31.7753C31.445 31.1805 30.9399 30.3451 31.0564 29.4515L33.5043 14.5503C33.8152 12.8407 34.6506 11.9664 35.4665 10.8008C33.446 10.8202 31.5033 10.8396 29.2885 10.8396C30.0656 11.5585 29.6382 12.7241 29.5799 13.5984L27.7343 24.8276Z" fill="#FEAF51"/>
</svg>
