<?xml version="1.0" encoding="UTF-8"?>
<svg xmlns="http://www.w3.org/2000/svg" xmlns:xlink="http://www.w3.org/1999/xlink" width="128px" height="128px" viewBox="0 0 128 128" version="1.1">
<g id="surface1">
<path style=" stroke:none;fill-rule:nonzero;fill:rgb(23.137255%,85.882353%,78.039216%);fill-opacity:1;" d="M 92.78125 76.269531 C 88 87.441406 76.898438 95.289062 64 95.289062 C 46.746094 95.289062 32.710938 81.253906 32.710938 64 C 32.710938 46.746094 46.746094 32.710938 64 32.710938 C 76.898438 32.710938 88 40.558594 92.78125 51.730469 L 97.738281 48.867188 C 91.953125 35.992188 79.027344 27.023438 64 27.023438 C 43.578125 27.023438 27.023438 43.578125 27.023438 64 C 27.023438 84.421875 43.578125 100.976562 64 100.976562 C 79.027344 100.976562 91.953125 92.007812 97.738281 79.132812 Z M 92.78125 76.269531 "/>
<path style=" stroke:none;fill-rule:nonzero;fill:rgb(23.137255%,85.882353%,78.039216%);fill-opacity:1;" d="M 92.019531 64 L 117.550781 78.738281 L 117.550781 49.261719 Z M 92.019531 64 "/>
<path style=" stroke:none;fill-rule:nonzero;fill:rgb(4.705882%,2.352941%,15.686275%);fill-opacity:1;" d="M 107.007812 84.484375 C 99.335938 100.53125 82.941406 111.644531 64 111.644531 C 37.730469 111.644531 16.355469 90.269531 16.355469 64 C 16.355469 37.730469 37.730469 16.355469 64 16.355469 C 82.941406 16.355469 99.335938 27.46875 107.007812 43.515625 L 111.960938 40.65625 C 103.304688 22.902344 85.082031 10.667969 64 10.667969 C 34.542969 10.667969 10.667969 34.542969 10.667969 64 C 10.667969 93.457031 34.542969 117.332031 64 117.332031 C 85.082031 117.332031 103.304688 105.097656 111.960938 87.34375 Z M 107.007812 84.484375 "/>
</g>
</svg>
